<svg xmlns="http://www.w3.org/2000/svg" version="1.1" xmlns:xlink="http://www.w3.org/1999/xlink" xmlns:svgjs="http://svgjs.dev/svgjs" viewBox="0 0 800 800"><g stroke-width="4" stroke="hsl(8, 54%, 39%)" fill="none"><path d="M767.8043296287774 -36.47386237888145C812.7996428371325 111.25215306967357 789.7805303423215 274.7666963949646 708.6084373249907 495.0992079693092C627.4363443076602 715.4317195436538 503.30585975609733 1028.0678198061194 378.17828314559165 1021.1221931779726C253.05070653508596 1014.1765665498258 184.16163194994215 643.5549417334475 107.99606959456293 461.760200154205C31.830507239183703 279.96545857496244 -1.2863180318991567 273.0577366070602 12.583583839769972 148.50743359760986C26.4534857114391 23.95713058815977 74.56173397750922 -60.56185850337192 174.57159857857562 -136.08125429115626C274.5814631796419 -211.60065007894053 369.04078162276153 -234.737206165479 492.63093392488736 -213.9856661837547C616.221086227013 -193.23412620203038 722.8090164204223 -184.19987782743647 767.8043296287774 -36.47386237888145C812.7996428371325 111.25215306967357 789.7805303423215 274.7666963949646 708.6084373249907 495.0992079693092 "></path><path d="M734.367577938448 3.205671208296735C775.272408127862 137.50204888880126 754.3459422234882 286.15163372997495 680.5531303895513 486.4539169793791C606.7603185556144 686.7562002287832 493.914423508739 970.9708368310248 380.16208113555206 964.6566308054369C266.409738762365 958.3424247798489 203.7833073213253 621.4136749467777 134.54188699825323 456.1457280565571C65.30046667518121 290.8777811663366 35.19426188328771 284.598033922789 47.80326358480511 171.37048573237985C60.41226528632251 58.14293754197058 104.14703643729536 -18.692507086694718 195.0650951655375 -87.34650325740768C285.98315389377956 -156.00049942812063 371.85526156934293 -177.0337322340647 484.2099454803663 -158.16869588704265C596.5646293913896 -139.30365954002053 693.4627477490344 -131.0907064722079 734.367577938448 3.205671208296735C775.272408127862 137.50204888880126 754.3459422234882 286.15163372997495 680.5531303895513 486.4539169793791 "></path><path d="M700.9308262481189 42.88511324274043C737.7451734185913 163.75185315519457 718.9113541046551 297.53647951225093 652.4978234541119 477.8085344367146C586.0842928035686 658.0805893611785 484.52298726138065 913.8737623031957 382.14587912551247 908.1909768801665C279.76877098964417 902.5081914571374 223.40498269270836 599.2723166073733 161.08770440194354 450.53116440617487C98.77042611117872 301.7900122049764 71.67484179847457 296.13823968578345 83.02294332984025 194.23344631441523C94.37104486120586 92.3286529430469 133.73233889708143 23.176752777248225 215.55859175249935 -38.61184377639347C297.38484460791733 -100.40044033003511 374.6697415159242 -119.33034985538478 475.7889570358453 -102.35181714306492C576.9081725557664 -85.37328443074506 664.1164790776465 -77.98162666971365 700.9308262481189 42.88511324274043C737.7451734185913 163.75185315519457 718.9113541046551 297.53647951225093 652.4978234541119 477.8085344367146 "></path><path d="M667.4940440402116 82.56449424202799C700.2179081917426 190.00159638643163 683.4767354682438 308.9212642593707 624.4424860010943 469.16309085889395C565.4082365339447 629.404917458417 475.1315204964444 856.7766267402103 384.12964659789475 851.72526191974C293.1277726993451 846.6738970992697 243.02662754651334 577.1308972328128 187.63349128805572 444.91653972063637C132.2403550295981 312.7021822084598 108.15539119608331 307.67838441362187 118.2425925572972 217.09634586129437C128.32979391851114 126.51430730896709 163.3176108392894 65.04595160603486 236.05205782188307 10.122754669464484C308.78650480447686 -44.80044226710589 377.4841909449274 -61.62702851186117 467.36793807374613 -46.534999434243446C557.2516852025649 -31.44297035662578 634.7701798886807 -24.872607902375705 667.4940440402116 82.56449424202799C700.2179081917426 190.00159638643163 683.4767354682438 308.9212642593707 624.4424860010943 469.16309085889395 "></path><path d="M634.0572923498825 122.24393627647174C662.6906734824721 216.25140065282494 648.0421473494105 320.30611004164655 596.3871790656547 460.51770831622935C544.7322107818989 600.7293065908124 465.74008424908607 799.6795522123816 386.11344458785516 795.2596079944697C306.48680492662425 790.8396637765582 262.64830291789644 554.9895388934084 214.17930869174603 439.3019760702541C165.71031446559562 323.6144132470997 144.63597111127012 319.2185901766163 153.46227230233234 239.95930644332998C162.2885734933945 160.7000227100434 192.90291329907546 106.9152114699778 256.54555440884496 58.85741415047869C320.1881955186145 10.79961683097963 380.2986708915088 -3.9236461331812507 458.9469496292252 9.281879309734222C537.5952283669415 22.487404752649695 605.4239112172928 28.236471900118545 634.0572923498825 122.24393627647174C662.6906734824721 216.25140065282494 648.0421473494105 320.30611004164655 596.3871790656547 460.51770831622935 "></path><path d="M600.6205559183423 161.9233783109155C625.1634540319906 242.50120491921825 612.6075744893664 331.6909558239224 568.3318873890042 451.87232577356497C524.056200288642 572.0536957232074 456.3486632605168 742.5824776845525 388.0972578366046 738.7939540691996C319.84585241269247 735.0054304538467 282.2699935480686 532.8481805540041 240.7251413542254 433.68741241987175C199.1802891603822 334.5266442857394 181.11656628524605 330.7587959396109 188.68196730615648 262.82226702536536C196.24736832706697 194.88573811111985 222.48823101765066 148.7844713339207 277.0390662545959 107.5920736314929C331.58990149154124 66.3996759290651 383.11316609687924 53.77973624549867 450.52597644349316 65.09875805371195C517.9387867901073 76.41777986192517 576.0776578046941 81.3455517026128 600.6205559183423 161.9233783109155C625.1634540319906 242.50120491921825 612.6075744893664 331.6909558239224 568.3318873890042 451.87232577356497 "></path><path d="M567.1837737104349 201.6028203453593C587.636188805142 268.75100918561157 577.172955852955 343.0758016061984 540.2765499359866 443.2269432309005C503.3801440190182 543.3780848556025 446.95719649558043 685.4854031567234 390.0810253089869 682.3283001439294C333.20485412239344 679.1711971311354 301.8916384018736 510.7068222145998 267.2709282403376 428.0728487694895C232.65021807880152 345.4388753243793 217.5971156828548 342.29900170260544 223.9016165336135 285.68522760740086C230.2061173843722 229.07145351219623 252.07350295985862 190.65373119786358 297.5325323239797 156.3267331125071C342.9915616881007 121.99973502715062 385.9276155258824 111.48311862417859 442.1049574813941 120.91563679768961C498.28229943690576 130.3481549712007 546.7313586157281 134.454631505107 567.1837737104349 201.6028203453593C587.636188805142 268.75100918561157 577.172955852955 343.0758016061984 540.2765499359866 443.2269432309005 "></path><path d="M533.7470220201058 241.28227763859212C550.1089540958712 295.00082871079394 541.7383677341219 354.46066264726346 512.2212430005471 434.58157594702516C482.7041182669723 514.7024892467866 437.5657602482222 628.3883438876833 392.0648232989474 625.8626614774481C346.56388634967254 623.336979067213 321.51331377325664 488.5654791339846 293.81674564402783 422.4583003778963C266.120177514799 356.35112162180803 254.07769559804166 353.83922272438906 259.12129627864863 308.5482034482253C264.16489695925554 263.25718417206167 281.6588054196447 232.52300632059553 318.02602891094153 205.06140785231037C354.39325240223843 177.5998093840252 388.7420954724637 169.18651626164757 433.6839690368731 176.7325308004564C478.62584260128244 184.27854533926524 517.3850899443403 187.5637265663903 533.7470220201058 241.28227763859212C550.1089540958712 295.00082871079394 541.7383677341219 354.46066264726346 512.2212430005471 434.58157594702516 "></path><path d="M500.3102703297766 280.96168915545775C512.5817193866008 321.2506024596091 506.3037796152887 365.8454779119612 484.16593606510764 425.93616288678254C462.02809251492647 486.02684786160376 428.17432400086386 571.2912388422762 394.0486212889078 569.3969770345998C359.9229185769517 567.5027152269233 341.1349891446398 466.42409027700205 320.36256304771814 416.8437062099358C299.59013695079653 367.2633221428697 290.5582755132285 365.37939796980544 294.3409760236837 331.4111335126827C298.12367653413895 297.4428690555599 311.24410787943077 274.39223566696035 338.51952549790343 253.79603681574645C365.7949431163761 233.19983796453255 391.5565754190451 226.88986812274936 425.26298059235205 232.54937902685595C458.9693857656591 238.20888993096258 488.03882127295253 240.67277585130637 500.3102703297766 280.96168915545775C512.5817193866008 321.2506024596091 506.3037796152887 365.8454779119612 484.16593606510764 425.93616288678254 "></path><path d="M466.87350338065835 320.6411006723234C475.0544694185411 347.5003762084243 470.8691762376664 377.2302931766591 456.11061387087904 417.2907498265399C441.3520515040916 457.35120647642066 418.78287249471657 514.194133796869 396.0324040200792 512.9312925917513C373.28193554544174 511.6684513866338 360.7566492572338 444.28270142001963 346.9083651926194 411.2291120419755C333.060081128005 378.17552266393136 327.03884016962627 376.9195732152219 329.5606405099298 354.27406357714C332.08244085023324 331.6285539390582 340.82939508042784 316.2614650133251 359.01300682607626 302.5306657791825C377.1966185717247 288.79986654503995 394.3710401068373 284.5932199838511 416.84197688904203 288.36622725325554C439.3129136712467 292.13923452265993 458.6925373427756 293.7818251362225 466.87350338065835 320.6411006723234C475.0544694185411 347.5003762084243 470.8691762376664 377.2302931766591 456.11061387087904 417.2907498265399 "></path><path d="M433.43676694911824 360.3205427067672C437.5272499680596 373.7501804748176 435.43460337762224 388.615138958935 428.05532219422855 408.64536728387543C420.67604101083487 428.6755956088158 409.39145150614735 457.09705926903996 398.01621726882865 456.46563866648114C386.64098303150996 455.8342180639224 380.37833988740596 422.1413430806153 373.45419785509876 405.6145483915932C366.53005582279155 389.08775370257115 363.5194353436022 388.4597789782164 364.7803355137539 377.1370241591755C366.0412356839057 365.81426934013456 370.414712799003 358.13072487726805 379.50651867182717 351.26532526019673C388.5983245446514 344.3999256431254 397.1855353122077 342.296602362531 408.4210037033101 344.1831059972332C419.6564720944124 346.06960963193546 429.34628393017687 346.8909049387167 433.43676694911824 360.3205427067672C437.5272499680596 373.7501804748176 435.43460337762224 388.615138958935 428.05532219422855 408.64536728387543 "></path></g></svg>