<?xml version="1.0" encoding="UTF-8"?>
<svg id="Layer_1" data-name="Layer 1" xmlns="http://www.w3.org/2000/svg" viewBox="0 0 427.28 568.38">
  <defs>
    <style>
      .cls-1 {
        fill: none;
        stroke: #b94b38;
        stroke-linecap: round;
        stroke-width: 4px;
      }
    </style>
  </defs>
  <path class="cls-1" d="m2,551.06c50.28,17.94,103.28,19.94,156.28,6.94,2-1,4-3,6-3,42-8,75-27,110-51,22-16,41-30,61-48,13-11,25-23,37-35,19-20,35-42,53-62"/>
  <path class="cls-1" d="m4.35,543.13c59.93,15.87,123.93,8.87,180.93-17.13,2-1,3,0,5-1,33-16,63-34,90-58,1-1,3-1,4-2,55-47,99-100,141-157"/>
  <path class="cls-1" d="m5.76,535.14c37.59,7.69,76.53,6.38,113.53-3.68,31.38-8.53,61.12-22.19,88.58-39.53,27.23-17.19,52.16-37.74,75.75-59.58,26.05-24.13,49.72-50.92,71.85-78.65s42.55-56.5,62.41-85.75c2.47-3.64,4.94-7.29,7.39-10.95"/>
  <path class="cls-1" d="m6.98,526.52c27.31,2.48,53.31,3.48,80.31-3.52h5c78-19,138-67,192-123,57-59,99-126,141-194"/>
  <path class="cls-1" d="m8.18,517.9c35.98,2.71,72.38-3.91,105.84-17.14,32.37-12.81,61.96-31.77,88.87-53.71,27.6-22.51,52.53-48.13,76.02-74.84,5.91-6.72,11.73-13.51,17.48-20.36,6.47-7.7,11.68-16.22,17.78-24.21,13.02-17.04,25.51-34.48,37.53-52.24,23.48-34.67,45.13-70.54,65.9-106.89,2.57-4.5,5.13-9.01,7.68-13.52"/>
  <path class="cls-1" d="m9.03,509.48c67.26.52,128.26-30.48,179.26-73.48,49-42,87-87,125-140,7-11,14-20,21-31,5-8,10-15,15-23,28-47,52-91,76-138"/>
  <path class="cls-1" d="m10.23,499.86c44.05-.86,84.05-17.86,122.05-42.86,12-7,23-15,34-24,16-14,30-27,45-42,3-4,6-7,9-11,1-1,3-2,4-3,31-37,59-71,85-112,15-25,30-48,44-74,3-4,5-8,8-12,25-42,44-83,64-126"/>
  <path class="cls-1" d="m11.49,491.5c25.79-3.5,49.79-10.5,73.79-22.5,10-5,18-10,28-16,7-5,12-9,19-13,6-5,12-9,18-14,48-39,84-82,118-135,2-3,4-5,6-7,19-30,36-57,53-87,13-22,24-42,36-64,22-44,44-86,62-131"/>
</svg>